<svg width="40" height="40" xmlns="http://www.w3.org/2000/svg" xml:space="preserve" version="1.1">

 <g>
  <title>Layer 1</title>
  <path id="svg_1" fill="#008c8c" d="m37.4,16.4c0.5,-1.3 0.6,-2.8 0.5,-4.2c-0.1,-1.4 -0.6,-2.8 -1.3,-4c-1.1,-1.9 -2.7,-3.3 -4.7,-4.2c-2,-0.9 -4.2,-1.1 -6.3,-0.6c-1,-1.1 -2.1,-1.9 -3.4,-2.5c-1.5,-0.6 -2.9,-0.9 -4.3,-0.9c-2.2,0 -4.3,0.7 -6,1.9c-1.8,1.3 -3.1,3 -3.7,5.1c-1.5,0.3 -2.8,0.8 -4,1.7s-2.1,1.9 -2.8,3.1c-1.1,1.8 -1.6,4 -1.3,6.1c0.2,2.1 1.1,4.1 2.5,5.7c-0.4,1.4 -0.6,2.8 -0.4,4.2c0.1,1.4 0.6,2.8 1.3,4c1.1,1.9 2.7,3.3 4.7,4.2c2,0.9 4.2,1.1 6.3,0.6c1,1.1 2.1,1.9 3.4,2.5c1.3,0.6 2.7,0.9 4.2,0.9c2.2,0 4.3,-0.7 6,-1.9c1.8,-1.3 3.1,-3 3.7,-5.1c1.4,-0.3 2.7,-0.9 3.9,-1.7c1.2,-0.8 2.1,-1.9 2.8,-3.1c1.1,-1.8 1.5,-4 1.3,-6.1c-0.1,-2.1 -1,-4.1 -2.4,-5.7zm-15.3,21c-1.8,0 -3.5,-0.6 -4.9,-1.7c0.1,0 0.2,-0.1 0.2,-0.1l8.1,-4.6c0.2,-0.1 0.4,-0.3 0.5,-0.5c0.1,-0.2 0.2,-0.4 0.2,-0.7l0,-11.2l3.4,1.9c0,0 0,0 0,0c0,0 0,0 0,0.1l0,9.3c0,2 -0.8,3.9 -2.2,5.3c-1.3,1.4 -3.3,2.2 -5.3,2.2zm-16.3,-6.9c-0.9,-1.5 -1.2,-3.3 -0.9,-5c0.1,0 0.2,0.1 0.2,0.1l8.1,4.6c0.2,0.1 0.4,0.2 0.7,0.2c0.2,0 0.5,-0.1 0.7,-0.2l9.9,-5.6l0,3.9c0,0 0,0 0,0.1c0,0 0,0 0,0l-8.2,4.6c-1.7,1 -3.8,1.3 -5.8,0.7c-2,-0.4 -3.7,-1.7 -4.7,-3.4zm-2.1,-17.4c0.9,-1.5 2.3,-2.7 4,-3.3c0,0.1 0,0.2 0,0.3l0,9.2c0,0.2 0.1,0.5 0.2,0.7c0.1,0.2 0.3,0.4 0.5,0.5l9.9,5.6l-3.6,1.9c0,0 0,0 -0.1,0c0,0 0,0 -0.1,0l-8.2,-4.7c-1.7,-1 -3,-2.6 -3.5,-4.6c-0.4,-1.8 -0.1,-3.9 0.9,-5.6zm28,6.5l-9.9,-5.6l3.4,-1.9c0,0 0,0 0.1,0c0,0 0,0 0.1,0l8.2,4.6c1.3,0.7 2.3,1.8 2.9,3c0.7,1.3 1,2.7 0.8,4.1s-0.7,2.8 -1.5,3.9c-0.9,1.1 -2.1,2 -3.4,2.5c0,-0.1 0,-0.2 0,-0.3l0,-9.2c0,-0.2 -0.1,-0.5 -0.2,-0.7s-0.3,-0.3 -0.5,-0.4zm3.4,-5.1c-0.1,0 -0.2,-0.1 -0.2,-0.1l-8.1,-4.6c-0.2,-0.1 -0.4,-0.2 -0.7,-0.2c-0.2,0 -0.5,0.1 -0.7,0.2l-9.9,5.6l0,-3.9c0,0 0,0 0,-0.1c0,0 0,0 0,0l8.2,-4.6c1.3,-0.7 2.7,-1.1 4.1,-1c1.4,0.1 2.8,0.5 4,1.3c1.2,0.8 2.1,1.9 2.7,3.3c0.7,1.3 0.9,2.7 0.6,4.1zm-21.3,6.9l-3.4,-1.9c0,0 0,0 0,0s0,0 0,-0.1l0,-9.3c0,-1.4 0.4,-2.8 1.2,-4c0.8,-1.2 1.9,-2.2 3.2,-2.8s2.8,-0.8 4.2,-0.6c1.4,0.2 2.8,0.8 3.9,1.7c-0.1,0 -0.2,0.1 -0.2,0.1l-8.1,4.6c-0.2,0.1 -0.4,0.3 -0.5,0.5c-0.1,0.2 -0.2,0.4 -0.2,0.7l-0.1,11.1zm1.8,-3.9l4.4,-2.5l4.4,2.5l0,5l-4.4,2.5l-4.4,-2.5l0,-5z" class="st0"/>
 </g>
</svg>